<svg width="18" height="18" viewBox="0 0 18 18" fill="none" xmlns="http://www.w3.org/2000/svg">
<path d="M8.99996 17.3333C4.39759 17.3333 0.666626 13.6024 0.666626 8.99999C0.666626 4.39762 4.39759 0.666656 8.99996 0.666656C13.6023 0.666656 17.3333 4.39762 17.3333 8.99999C17.3282 13.6003 13.6002 17.3283 8.99996 17.3333ZM8.99996 2.33332C5.31806 2.33332 2.33329 5.31809 2.33329 8.99999C2.33329 12.6819 5.31806 15.6667 8.99996 15.6667C12.6819 15.6667 15.6666 12.6819 15.6666 8.99999C15.6625 5.31981 12.6801 2.33746 8.99996 2.33332ZM13.1666 9.83332H8.16663V4.83332H9.83329V8.16666H13.1666V9.83332Z" fill="#9CA7A5"/>
</svg>
