<svg width="18" height="18" viewBox="0 0 18 18" fill="none" xmlns="http://www.w3.org/2000/svg">
<path d="M15.677 17.107L9.96201 11.391C7.41968 13.1985 3.91645 12.7564 1.90288 10.3739C-0.110681 7.99153 0.0371699 4.46361 2.24301 2.25802C4.44827 0.0514662 7.97654 -0.097024 10.3594 1.91644C12.7423 3.92989 13.1846 7.43347 11.377 9.97602L17.092 15.692L15.678 17.106L15.677 17.107ZM6.48501 2.50001C4.58871 2.49958 2.9527 3.8307 2.56749 5.68745C2.18227 7.54421 3.15372 9.41629 4.89369 10.1703C6.63365 10.9242 8.66391 10.3528 9.75525 8.80207C10.8466 7.25129 10.6991 5.14734 9.40201 3.76402L10.007 4.36402L9.32501 3.68402L9.31301 3.67202C8.5648 2.9192 7.54641 2.49715 6.48501 2.50001Z" fill="white"/>
</svg>
