<svg width="17" height="17" viewBox="0 0 17 17" fill="none" xmlns="http://www.w3.org/2000/svg">
<path d="M8.74751 16.3067C8.30499 16.308 7.88035 16.1321 7.56834 15.8183L1.04 9.28917C0.695495 8.94563 0.518846 8.46838 0.556671 7.98333L0.973338 2.51167C1.03275 1.68865 1.6885 1.03468 2.51167 0.9775L7.98334 0.560833C8.02584 0.551666 8.06917 0.551666 8.11167 0.551666C8.55321 0.5528 8.97642 0.728315 9.28917 1.04L15.8183 7.56833C16.131 7.88091 16.3067 8.30494 16.3067 8.74708C16.3067 9.18923 16.131 9.61325 15.8183 9.92583L9.92584 15.8183C9.61403 16.1319 9.18973 16.3078 8.74751 16.3067ZM8.11084 2.21833L2.635 2.635L2.21834 8.11083L8.74751 14.64L14.6392 8.74833L8.11084 2.21833ZM5.21167 6.87834C4.41654 6.8785 3.73201 6.31697 3.57674 5.53714C3.42146 4.75732 3.83868 3.9764 4.57323 3.67198C5.30778 3.36756 6.15508 3.62443 6.59694 4.28549C7.03881 4.94654 6.95216 5.82767 6.39 6.39C6.0782 6.7036 5.6539 6.87944 5.21167 6.87834Z" fill="#9CA7A5"/>
</svg>
