<svg width="18" height="17" viewBox="0 0 18 17" fill="none" xmlns="http://www.w3.org/2000/svg">
<path d="M8.99984 16.8334C4.39746 16.8334 0.666504 13.1024 0.666504 8.50002C0.666504 3.89765 4.39746 0.166687 8.99984 0.166687C13.6022 0.166687 17.3332 3.89765 17.3332 8.50002C17.3281 13.1003 13.6001 16.8283 8.99984 16.8334ZM8.99984 1.83335C5.31794 1.83335 2.33317 4.81812 2.33317 8.50002C2.33317 12.1819 5.31794 15.1667 8.99984 15.1667C12.6817 15.1667 15.6665 12.1819 15.6665 8.50002C15.6624 4.81984 12.68 1.83749 8.99984 1.83335ZM13.1665 9.33335H8.1665V4.33335H9.83317V7.66669H13.1665V9.33335Z" fill="#9CA7A5"/>
</svg>
