<svg width="20" height="21" viewBox="0 0 20 21" fill="none" xmlns="http://www.w3.org/2000/svg">
<path d="M9.99984 18C8.94728 17.1022 7.97166 16.1179 7.08317 15.0575C5.74984 13.465 4.1665 11.0933 4.1665 8.83331C4.16532 6.47294 5.58671 4.34447 7.76739 3.44115C9.94808 2.53782 12.4582 3.03768 14.1265 4.70748C15.2236 5.79965 15.8381 7.2853 15.8332 8.83331C15.8332 11.0933 14.2498 13.465 12.9165 15.0575C12.028 16.1179 11.0524 17.1022 9.99984 18ZM9.99984 6.33331C9.10667 6.33331 8.28136 6.80981 7.83477 7.58331C7.38819 8.35682 7.38819 9.30981 7.83477 10.0833C8.28136 10.8568 9.10667 11.3333 9.99984 11.3333C11.3806 11.3333 12.4998 10.214 12.4998 8.83331C12.4998 7.4526 11.3806 6.33331 9.99984 6.33331Z" fill="#9CA7A5"/>
<ellipse cx="10" cy="8.83331" rx="2.5" ry="2.5" fill="white"/>
</svg>
