<svg width="14" height="15" viewBox="0 0 14 15" fill="none" xmlns="http://www.w3.org/2000/svg">
<path d="M12.8314 14.1666C5.72172 14.1767 0.325898 8.71623 0.333504 1.66874C0.333504 1.2085 0.7066 0.833313 1.16684 0.833313H3.3663C3.77928 0.833313 4.13011 1.13675 4.19075 1.54525C4.33609 2.52431 4.62114 3.47745 5.03723 4.37557L5.12287 4.5604C5.24194 4.8174 5.16123 5.12276 4.93073 5.28737C4.24958 5.7738 3.98926 6.75294 4.51991 7.51694C5.18581 8.47568 6.02521 9.3149 6.98372 9.98049C7.74768 10.511 8.72666 10.2507 9.21308 9.56968C9.3778 9.33906 9.68334 9.25831 9.94049 9.37743L10.1245 9.46266C11.0227 9.87873 11.9759 10.1638 12.955 10.3091C13.3635 10.3697 13.6668 10.7205 13.6668 11.1335V13.3333C13.6668 13.7935 13.2928 14.1666 12.8326 14.1666L12.8314 14.1666Z" fill="#9CA7A5"/>
</svg>
