<svg width="17" height="16" viewBox="0 0 17 16" fill="none" xmlns="http://www.w3.org/2000/svg">
<path d="M8.74763 15.8067C8.30511 15.808 7.88047 15.6322 7.56846 15.3184L1.04013 8.7892C0.695617 8.44567 0.518969 7.96841 0.556793 7.48336L0.97346 2.0117C1.03288 1.18868 1.68862 0.534713 2.51179 0.47753L7.98346 0.0608634C8.02596 0.0516968 8.06929 0.0516968 8.11179 0.0516968C8.55333 0.0528303 8.97655 0.228346 9.28929 0.54003L15.8185 7.06836C16.1312 7.38094 16.3069 7.80497 16.3069 8.24711C16.3069 8.68926 16.1312 9.11328 15.8185 9.42586L9.92596 15.3184C9.61415 15.632 9.18986 15.8078 8.74763 15.8067ZM8.11096 1.71836L2.63513 2.13503L2.21846 7.61086L8.74763 14.14L14.6393 8.24836L8.11096 1.71836ZM5.21179 6.37837C4.41666 6.37853 3.73214 5.817 3.57686 5.03717C3.42158 4.25735 3.8388 3.47643 4.57335 3.17201C5.3079 2.8676 6.1552 3.12446 6.59707 3.78552C7.03893 4.44657 6.95229 5.3277 6.39013 5.89003C6.07832 6.20363 5.65402 6.37947 5.21179 6.37837Z" fill="#9CA7A5"/>
</svg>
