<svg width="112" height="112" viewBox="0 0 112 112" fill="none" xmlns="http://www.w3.org/2000/svg">
<path d="M59.4462 67.444H52.5342L50.7342 32.092H61.2462L59.4462 67.444ZM50.4462 78.892C50.4462 76.876 50.9742 75.46 52.0302 74.644C53.0862 73.78 54.4062 73.348 55.9902 73.348C57.4302 73.348 58.7022 73.78 59.8062 74.644C60.9102 75.46 61.4622 76.876 61.4622 78.892C61.4622 80.86 60.9102 82.276 59.8062 83.14C58.7022 84.004 57.4302 84.436 55.9902 84.436C54.4062 84.436 53.0862 84.004 52.0302 83.14C50.9742 82.276 50.4462 80.86 50.4462 78.892Z" fill="#9CA7A5"/>
<rect x="2" y="2" width="108" height="108" rx="54" stroke="#9CA7A5" stroke-width="4"/>
</svg>
