<svg width="18" height="17" viewBox="0 0 18 17" fill="none" xmlns="http://www.w3.org/2000/svg">
<path fill-rule="evenodd" clip-rule="evenodd" d="M7.15742 14.7699C6.87989 14.2183 6.63914 13.6352 6.43906 13.0263C5.94745 13.2027 5.47935 13.4283 5.04066 13.6974C5.66702 14.1753 6.38233 14.5425 7.15742 14.7699ZM3.93405 12.6261C4.58456 12.1883 5.29493 11.8323 6.05025 11.5731C5.88553 10.7858 5.78573 9.96638 5.75788 9.12498H2.49601C2.62141 10.4461 3.14024 11.6527 3.93405 12.6261ZM2.49601 7.87498H5.76967C5.81455 7.01405 5.93483 6.17751 6.1229 5.37638C5.36772 5.10293 4.65914 4.73225 4.01239 4.27957C3.1744 5.26888 2.62547 6.51082 2.49601 7.87498ZM5.1389 3.22897C5.57954 3.51047 6.05113 3.74762 6.54747 3.93418C6.76666 3.32036 7.02775 2.7346 7.32661 2.18286C6.52699 2.3941 5.78742 2.75313 5.1389 3.22897ZM12.959 13.6974C12.3327 14.1753 11.6173 14.5425 10.8423 14.7699C11.1198 14.2183 11.3605 13.6352 11.5606 13.0263C12.0522 13.2027 12.5203 13.4283 12.959 13.6974ZM14.0656 12.6261C13.4151 12.1883 12.7047 11.8323 11.9494 11.5731C12.1141 10.7858 12.2139 9.96638 12.2418 9.12498H15.5037C15.3783 10.4461 14.8594 11.6527 14.0656 12.6261ZM15.5037 7.87498H12.23C12.1876 7.0621 12.078 6.27097 11.9076 5.51086C12.7043 5.26393 13.4541 4.91035 14.1401 4.46693C14.8919 5.42372 15.3822 6.5956 15.5037 7.87498ZM13.053 3.37554C12.567 3.66132 12.0463 3.8944 11.4988 4.06702C11.2704 3.40478 10.9934 2.77428 10.6731 2.18286C11.5528 2.41527 12.3599 2.82659 13.053 3.37554ZM17.3332 8.49996C17.3332 13.1023 13.6022 16.8333 8.99984 16.8333C4.39746 16.8333 0.666504 13.1023 0.666504 8.49996C0.666504 3.89759 4.39746 0.166626 8.99984 0.166626C13.6022 0.166626 17.3332 3.89759 17.3332 8.49996ZM8.99984 2.29337C8.60928 2.90937 8.27328 3.58928 8.00311 4.32031C8.39785 4.38369 8.8028 4.41663 9.2155 4.41663C9.48608 4.41663 9.75334 4.40247 10.0166 4.37486C9.74304 3.62308 9.40009 2.92467 8.99984 2.29337ZM10.7278 7.87498C10.6868 7.17056 10.5898 6.48795 10.443 5.83433C10.0415 5.8886 9.63176 5.91663 9.2155 5.91663C8.65428 5.91663 8.10489 5.86568 7.57173 5.76818C7.41648 6.44186 7.31422 7.14676 7.27192 7.87498H10.7278ZM7.25878 9.12498C7.28522 9.84224 7.36978 10.5383 7.50594 11.2056C7.99201 11.1252 8.49107 11.0833 8.99984 11.0833C9.50861 11.0833 10.0077 11.1252 10.4937 11.2056C10.6299 10.5383 10.7144 9.84224 10.7409 9.12498H7.25878ZM10.1007 12.6625C9.74133 12.6103 9.37377 12.5833 8.99984 12.5833C8.62591 12.5833 8.25835 12.6103 7.89898 12.6625C8.18497 13.5057 8.55736 14.2856 8.99984 14.9835C9.44231 14.2856 9.81471 13.5057 10.1007 12.6625Z" fill="#9CA7A5"/>
</svg>
